<mxfile host="app.diagrams.net" modified="2023-03-08T05:24:21.068Z" agent="5.0 (Windows NT 10.0; Win64; x64) AppleWebKit/537.36 (KHTML, like Gecko) Chrome/110.0.0.0 Safari/537.36 Edg/110.0.1587.63" etag="ZU6d2j_lVa7onDtuRN_u" version="21.0.2" type="github">
  <diagram name="第 1 页" id="6ohKMkwmjuOpAt-eQ91M">
    <mxGraphModel dx="1386" dy="756" grid="1" gridSize="10" guides="1" tooltips="1" connect="1" arrows="1" fold="1" page="1" pageScale="1" pageWidth="827" pageHeight="1169" math="0" shadow="0">
      <root>
        <mxCell id="0" />
        <mxCell id="1" parent="0" />
        <mxCell id="y0cFCC2wbaYEuUW8jUDX-1" value="" style="shape=table;startSize=0;container=1;collapsible=0;childLayout=tableLayout;fontSize=16;" vertex="1" parent="1">
          <mxGeometry x="150" y="210" width="521" height="40" as="geometry" />
        </mxCell>
        <mxCell id="y0cFCC2wbaYEuUW8jUDX-2" value="" style="shape=tableRow;horizontal=0;startSize=0;swimlaneHead=0;swimlaneBody=0;strokeColor=inherit;top=0;left=0;bottom=0;right=0;collapsible=0;dropTarget=0;fillColor=none;points=[[0,0.5],[1,0.5]];portConstraint=eastwest;fontSize=16;" vertex="1" parent="y0cFCC2wbaYEuUW8jUDX-1">
          <mxGeometry width="521" height="40" as="geometry" />
        </mxCell>
        <mxCell id="y0cFCC2wbaYEuUW8jUDX-3" value="3" style="shape=partialRectangle;html=1;whiteSpace=wrap;connectable=0;strokeColor=inherit;overflow=hidden;fillColor=none;top=0;left=0;bottom=0;right=0;pointerEvents=1;fontSize=16;" vertex="1" parent="y0cFCC2wbaYEuUW8jUDX-2">
          <mxGeometry width="87" height="40" as="geometry">
            <mxRectangle width="87" height="40" as="alternateBounds" />
          </mxGeometry>
        </mxCell>
        <mxCell id="y0cFCC2wbaYEuUW8jUDX-4" value="3" style="shape=partialRectangle;html=1;whiteSpace=wrap;connectable=0;strokeColor=inherit;overflow=hidden;fillColor=none;top=0;left=0;bottom=0;right=0;pointerEvents=1;fontSize=16;" vertex="1" parent="y0cFCC2wbaYEuUW8jUDX-2">
          <mxGeometry x="87" width="86" height="40" as="geometry">
            <mxRectangle width="86" height="40" as="alternateBounds" />
          </mxGeometry>
        </mxCell>
        <mxCell id="y0cFCC2wbaYEuUW8jUDX-5" value="6" style="shape=partialRectangle;html=1;whiteSpace=wrap;connectable=0;strokeColor=inherit;overflow=hidden;fillColor=none;top=0;left=0;bottom=0;right=0;pointerEvents=1;fontSize=16;" vertex="1" parent="y0cFCC2wbaYEuUW8jUDX-2">
          <mxGeometry x="173" width="87" height="40" as="geometry">
            <mxRectangle width="87" height="40" as="alternateBounds" />
          </mxGeometry>
        </mxCell>
        <mxCell id="y0cFCC2wbaYEuUW8jUDX-24" value="10" style="shape=partialRectangle;html=1;whiteSpace=wrap;connectable=0;strokeColor=inherit;overflow=hidden;fillColor=none;top=0;left=0;bottom=0;right=0;pointerEvents=1;fontSize=16;" vertex="1" parent="y0cFCC2wbaYEuUW8jUDX-2">
          <mxGeometry x="260" width="87" height="40" as="geometry">
            <mxRectangle width="87" height="40" as="alternateBounds" />
          </mxGeometry>
        </mxCell>
        <mxCell id="y0cFCC2wbaYEuUW8jUDX-25" value="2" style="shape=partialRectangle;html=1;whiteSpace=wrap;connectable=0;strokeColor=inherit;overflow=hidden;fillColor=none;top=0;left=0;bottom=0;right=0;pointerEvents=1;fontSize=16;" vertex="1" parent="y0cFCC2wbaYEuUW8jUDX-2">
          <mxGeometry x="347" width="87" height="40" as="geometry">
            <mxRectangle width="87" height="40" as="alternateBounds" />
          </mxGeometry>
        </mxCell>
        <mxCell id="y0cFCC2wbaYEuUW8jUDX-26" value="1" style="shape=partialRectangle;html=1;whiteSpace=wrap;connectable=0;strokeColor=inherit;overflow=hidden;fillColor=none;top=0;left=0;bottom=0;right=0;pointerEvents=1;fontSize=16;" vertex="1" parent="y0cFCC2wbaYEuUW8jUDX-2">
          <mxGeometry x="434" width="87" height="40" as="geometry">
            <mxRectangle width="87" height="40" as="alternateBounds" />
          </mxGeometry>
        </mxCell>
        <mxCell id="y0cFCC2wbaYEuUW8jUDX-27" value="Partition操作" style="text;html=1;align=center;verticalAlign=middle;resizable=0;points=[];autosize=1;strokeColor=none;fillColor=none;" vertex="1" parent="1">
          <mxGeometry x="150" y="160" width="90" height="30" as="geometry" />
        </mxCell>
        <mxCell id="y0cFCC2wbaYEuUW8jUDX-28" value="选取Pivot" style="text;html=1;align=center;verticalAlign=middle;resizable=0;points=[];autosize=1;strokeColor=none;fillColor=none;" vertex="1" parent="1">
          <mxGeometry x="160" y="280" width="70" height="30" as="geometry" />
        </mxCell>
        <mxCell id="y0cFCC2wbaYEuUW8jUDX-29" value="" style="endArrow=classic;html=1;rounded=0;exitX=0.5;exitY=0.033;exitDx=0;exitDy=0;exitPerimeter=0;entryX=0.086;entryY=1;entryDx=0;entryDy=0;entryPerimeter=0;" edge="1" parent="1" source="y0cFCC2wbaYEuUW8jUDX-28" target="y0cFCC2wbaYEuUW8jUDX-2">
          <mxGeometry width="50" height="50" relative="1" as="geometry">
            <mxPoint x="390" y="410" as="sourcePoint" />
            <mxPoint x="440" y="360" as="targetPoint" />
          </mxGeometry>
        </mxCell>
        <mxCell id="y0cFCC2wbaYEuUW8jUDX-30" value="进行Partition操作，从高位开始比较" style="text;html=1;align=center;verticalAlign=middle;resizable=0;points=[];autosize=1;strokeColor=none;fillColor=none;" vertex="1" parent="1">
          <mxGeometry x="150" y="330" width="210" height="30" as="geometry" />
        </mxCell>
        <mxCell id="y0cFCC2wbaYEuUW8jUDX-31" value="" style="shape=table;startSize=0;container=1;collapsible=0;childLayout=tableLayout;fontSize=16;" vertex="1" parent="1">
          <mxGeometry x="153" y="400" width="521" height="40" as="geometry" />
        </mxCell>
        <mxCell id="y0cFCC2wbaYEuUW8jUDX-32" value="" style="shape=tableRow;horizontal=0;startSize=0;swimlaneHead=0;swimlaneBody=0;strokeColor=inherit;top=0;left=0;bottom=0;right=0;collapsible=0;dropTarget=0;fillColor=none;points=[[0,0.5],[1,0.5]];portConstraint=eastwest;fontSize=16;" vertex="1" parent="y0cFCC2wbaYEuUW8jUDX-31">
          <mxGeometry width="521" height="40" as="geometry" />
        </mxCell>
        <mxCell id="y0cFCC2wbaYEuUW8jUDX-33" value="3" style="shape=partialRectangle;html=1;whiteSpace=wrap;connectable=0;strokeColor=#82b366;overflow=hidden;fillColor=#d5e8d4;top=0;left=0;bottom=0;right=0;pointerEvents=1;fontSize=16;" vertex="1" parent="y0cFCC2wbaYEuUW8jUDX-32">
          <mxGeometry width="87" height="40" as="geometry">
            <mxRectangle width="87" height="40" as="alternateBounds" />
          </mxGeometry>
        </mxCell>
        <mxCell id="y0cFCC2wbaYEuUW8jUDX-34" value="3" style="shape=partialRectangle;html=1;whiteSpace=wrap;connectable=0;strokeColor=inherit;overflow=hidden;fillColor=none;top=0;left=0;bottom=0;right=0;pointerEvents=1;fontSize=16;" vertex="1" parent="y0cFCC2wbaYEuUW8jUDX-32">
          <mxGeometry x="87" width="86" height="40" as="geometry">
            <mxRectangle width="86" height="40" as="alternateBounds" />
          </mxGeometry>
        </mxCell>
        <mxCell id="y0cFCC2wbaYEuUW8jUDX-35" value="6" style="shape=partialRectangle;html=1;whiteSpace=wrap;connectable=0;strokeColor=inherit;overflow=hidden;fillColor=none;top=0;left=0;bottom=0;right=0;pointerEvents=1;fontSize=16;" vertex="1" parent="y0cFCC2wbaYEuUW8jUDX-32">
          <mxGeometry x="173" width="87" height="40" as="geometry">
            <mxRectangle width="87" height="40" as="alternateBounds" />
          </mxGeometry>
        </mxCell>
        <mxCell id="y0cFCC2wbaYEuUW8jUDX-36" value="10" style="shape=partialRectangle;html=1;whiteSpace=wrap;connectable=0;strokeColor=inherit;overflow=hidden;fillColor=none;top=0;left=0;bottom=0;right=0;pointerEvents=1;fontSize=16;" vertex="1" parent="y0cFCC2wbaYEuUW8jUDX-32">
          <mxGeometry x="260" width="87" height="40" as="geometry">
            <mxRectangle width="87" height="40" as="alternateBounds" />
          </mxGeometry>
        </mxCell>
        <mxCell id="y0cFCC2wbaYEuUW8jUDX-37" value="2" style="shape=partialRectangle;html=1;whiteSpace=wrap;connectable=0;strokeColor=inherit;overflow=hidden;fillColor=none;top=0;left=0;bottom=0;right=0;pointerEvents=1;fontSize=16;" vertex="1" parent="y0cFCC2wbaYEuUW8jUDX-32">
          <mxGeometry x="347" width="87" height="40" as="geometry">
            <mxRectangle width="87" height="40" as="alternateBounds" />
          </mxGeometry>
        </mxCell>
        <mxCell id="y0cFCC2wbaYEuUW8jUDX-38" value="1" style="shape=partialRectangle;html=1;whiteSpace=wrap;connectable=0;strokeColor=#6c8ebf;overflow=hidden;fillColor=#dae8fc;top=0;left=0;bottom=0;right=0;pointerEvents=1;fontSize=16;" vertex="1" parent="y0cFCC2wbaYEuUW8jUDX-32">
          <mxGeometry x="434" width="87" height="40" as="geometry">
            <mxRectangle width="87" height="40" as="alternateBounds" />
          </mxGeometry>
        </mxCell>
        <mxCell id="y0cFCC2wbaYEuUW8jUDX-39" value="&lt;font color=&quot;#ff3333&quot;&gt;low&lt;/font&gt;" style="text;html=1;align=center;verticalAlign=middle;resizable=0;points=[];autosize=1;strokeColor=none;fillColor=none;" vertex="1" parent="1">
          <mxGeometry x="150" y="365" width="40" height="30" as="geometry" />
        </mxCell>
        <mxCell id="y0cFCC2wbaYEuUW8jUDX-40" value="&lt;font color=&quot;#ff3333&quot;&gt;high&lt;/font&gt;" style="text;html=1;align=center;verticalAlign=middle;resizable=0;points=[];autosize=1;strokeColor=none;fillColor=none;" vertex="1" parent="1">
          <mxGeometry x="621" y="470" width="50" height="30" as="geometry" />
        </mxCell>
        <mxCell id="y0cFCC2wbaYEuUW8jUDX-41" value="" style="shape=table;startSize=0;container=1;collapsible=0;childLayout=tableLayout;fontSize=16;" vertex="1" parent="1">
          <mxGeometry x="153" y="500" width="521" height="40" as="geometry" />
        </mxCell>
        <mxCell id="y0cFCC2wbaYEuUW8jUDX-42" value="" style="shape=tableRow;horizontal=0;startSize=0;swimlaneHead=0;swimlaneBody=0;strokeColor=inherit;top=0;left=0;bottom=0;right=0;collapsible=0;dropTarget=0;fillColor=none;points=[[0,0.5],[1,0.5]];portConstraint=eastwest;fontSize=16;" vertex="1" parent="y0cFCC2wbaYEuUW8jUDX-41">
          <mxGeometry width="521" height="40" as="geometry" />
        </mxCell>
        <mxCell id="y0cFCC2wbaYEuUW8jUDX-43" value="1" style="shape=partialRectangle;html=1;whiteSpace=wrap;connectable=0;strokeColor=#82b366;overflow=hidden;fillColor=#d5e8d4;top=0;left=0;bottom=0;right=0;pointerEvents=1;fontSize=16;" vertex="1" parent="y0cFCC2wbaYEuUW8jUDX-42">
          <mxGeometry width="87" height="40" as="geometry">
            <mxRectangle width="87" height="40" as="alternateBounds" />
          </mxGeometry>
        </mxCell>
        <mxCell id="y0cFCC2wbaYEuUW8jUDX-44" value="3" style="shape=partialRectangle;html=1;whiteSpace=wrap;connectable=0;strokeColor=inherit;overflow=hidden;fillColor=none;top=0;left=0;bottom=0;right=0;pointerEvents=1;fontSize=16;" vertex="1" parent="y0cFCC2wbaYEuUW8jUDX-42">
          <mxGeometry x="87" width="86" height="40" as="geometry">
            <mxRectangle width="86" height="40" as="alternateBounds" />
          </mxGeometry>
        </mxCell>
        <mxCell id="y0cFCC2wbaYEuUW8jUDX-45" value="6" style="shape=partialRectangle;html=1;whiteSpace=wrap;connectable=0;strokeColor=inherit;overflow=hidden;fillColor=none;top=0;left=0;bottom=0;right=0;pointerEvents=1;fontSize=16;" vertex="1" parent="y0cFCC2wbaYEuUW8jUDX-42">
          <mxGeometry x="173" width="87" height="40" as="geometry">
            <mxRectangle width="87" height="40" as="alternateBounds" />
          </mxGeometry>
        </mxCell>
        <mxCell id="y0cFCC2wbaYEuUW8jUDX-46" value="10" style="shape=partialRectangle;html=1;whiteSpace=wrap;connectable=0;strokeColor=inherit;overflow=hidden;fillColor=none;top=0;left=0;bottom=0;right=0;pointerEvents=1;fontSize=16;" vertex="1" parent="y0cFCC2wbaYEuUW8jUDX-42">
          <mxGeometry x="260" width="87" height="40" as="geometry">
            <mxRectangle width="87" height="40" as="alternateBounds" />
          </mxGeometry>
        </mxCell>
        <mxCell id="y0cFCC2wbaYEuUW8jUDX-47" value="2" style="shape=partialRectangle;html=1;whiteSpace=wrap;connectable=0;strokeColor=inherit;overflow=hidden;fillColor=none;top=0;left=0;bottom=0;right=0;pointerEvents=1;fontSize=16;" vertex="1" parent="y0cFCC2wbaYEuUW8jUDX-42">
          <mxGeometry x="347" width="87" height="40" as="geometry">
            <mxRectangle width="87" height="40" as="alternateBounds" />
          </mxGeometry>
        </mxCell>
        <mxCell id="y0cFCC2wbaYEuUW8jUDX-48" value="3" style="shape=partialRectangle;html=1;whiteSpace=wrap;connectable=0;strokeColor=#6c8ebf;overflow=hidden;fillColor=#dae8fc;top=0;left=0;bottom=0;right=0;pointerEvents=1;fontSize=16;" vertex="1" parent="y0cFCC2wbaYEuUW8jUDX-42">
          <mxGeometry x="434" width="87" height="40" as="geometry">
            <mxRectangle width="87" height="40" as="alternateBounds" />
          </mxGeometry>
        </mxCell>
        <mxCell id="y0cFCC2wbaYEuUW8jUDX-49" value="" style="endArrow=classic;html=1;rounded=0;exitX=0.499;exitY=1;exitDx=0;exitDy=0;exitPerimeter=0;strokeColor=#FF3399;" edge="1" parent="1" source="y0cFCC2wbaYEuUW8jUDX-32" target="y0cFCC2wbaYEuUW8jUDX-42">
          <mxGeometry width="50" height="50" relative="1" as="geometry">
            <mxPoint x="390" y="410" as="sourcePoint" />
            <mxPoint x="440" y="360" as="targetPoint" />
          </mxGeometry>
        </mxCell>
        <mxCell id="y0cFCC2wbaYEuUW8jUDX-50" value="因为low &amp;lt; hgih，且没有出现了&lt;b&gt;a[high]&amp;gt;=pivot&lt;/b&gt;这种行为，因此需要进行&lt;b&gt;高低位交换&lt;/b&gt;" style="text;html=1;align=center;verticalAlign=middle;resizable=0;points=[];autosize=1;strokeColor=none;fillColor=none;" vertex="1" parent="1">
          <mxGeometry x="397" y="453" width="460" height="30" as="geometry" />
        </mxCell>
        <mxCell id="y0cFCC2wbaYEuUW8jUDX-51" value="然后从低位开始比较" style="text;html=1;align=center;verticalAlign=middle;resizable=0;points=[];autosize=1;strokeColor=none;fillColor=none;" vertex="1" parent="1">
          <mxGeometry x="150" y="550" width="130" height="30" as="geometry" />
        </mxCell>
        <mxCell id="y0cFCC2wbaYEuUW8jUDX-52" value="&lt;font color=&quot;#ff3333&quot;&gt;low&lt;/font&gt;" style="text;html=1;align=center;verticalAlign=middle;resizable=0;points=[];autosize=1;strokeColor=none;fillColor=none;" vertex="1" parent="1">
          <mxGeometry x="153" y="470" width="40" height="30" as="geometry" />
        </mxCell>
        <mxCell id="y0cFCC2wbaYEuUW8jUDX-53" value="" style="shape=table;startSize=0;container=1;collapsible=0;childLayout=tableLayout;fontSize=16;" vertex="1" parent="1">
          <mxGeometry x="153" y="601" width="521" height="40" as="geometry" />
        </mxCell>
        <mxCell id="y0cFCC2wbaYEuUW8jUDX-54" value="" style="shape=tableRow;horizontal=0;startSize=0;swimlaneHead=0;swimlaneBody=0;strokeColor=inherit;top=0;left=0;bottom=0;right=0;collapsible=0;dropTarget=0;fillColor=none;points=[[0,0.5],[1,0.5]];portConstraint=eastwest;fontSize=16;" vertex="1" parent="y0cFCC2wbaYEuUW8jUDX-53">
          <mxGeometry width="521" height="40" as="geometry" />
        </mxCell>
        <mxCell id="y0cFCC2wbaYEuUW8jUDX-55" value="1" style="shape=partialRectangle;html=1;whiteSpace=wrap;connectable=0;overflow=hidden;top=0;left=0;bottom=0;right=0;pointerEvents=1;fontSize=16;" vertex="1" parent="y0cFCC2wbaYEuUW8jUDX-54">
          <mxGeometry width="87" height="40" as="geometry">
            <mxRectangle width="87" height="40" as="alternateBounds" />
          </mxGeometry>
        </mxCell>
        <mxCell id="y0cFCC2wbaYEuUW8jUDX-56" value="3" style="shape=partialRectangle;html=1;whiteSpace=wrap;connectable=0;strokeColor=#82b366;overflow=hidden;fillColor=#d5e8d4;top=0;left=0;bottom=0;right=0;pointerEvents=1;fontSize=16;" vertex="1" parent="y0cFCC2wbaYEuUW8jUDX-54">
          <mxGeometry x="87" width="86" height="40" as="geometry">
            <mxRectangle width="86" height="40" as="alternateBounds" />
          </mxGeometry>
        </mxCell>
        <mxCell id="y0cFCC2wbaYEuUW8jUDX-57" value="6" style="shape=partialRectangle;html=1;whiteSpace=wrap;connectable=0;strokeColor=inherit;overflow=hidden;fillColor=none;top=0;left=0;bottom=0;right=0;pointerEvents=1;fontSize=16;" vertex="1" parent="y0cFCC2wbaYEuUW8jUDX-54">
          <mxGeometry x="173" width="87" height="40" as="geometry">
            <mxRectangle width="87" height="40" as="alternateBounds" />
          </mxGeometry>
        </mxCell>
        <mxCell id="y0cFCC2wbaYEuUW8jUDX-58" value="10" style="shape=partialRectangle;html=1;whiteSpace=wrap;connectable=0;strokeColor=inherit;overflow=hidden;fillColor=none;top=0;left=0;bottom=0;right=0;pointerEvents=1;fontSize=16;" vertex="1" parent="y0cFCC2wbaYEuUW8jUDX-54">
          <mxGeometry x="260" width="87" height="40" as="geometry">
            <mxRectangle width="87" height="40" as="alternateBounds" />
          </mxGeometry>
        </mxCell>
        <mxCell id="y0cFCC2wbaYEuUW8jUDX-59" value="2" style="shape=partialRectangle;html=1;whiteSpace=wrap;connectable=0;strokeColor=inherit;overflow=hidden;fillColor=none;top=0;left=0;bottom=0;right=0;pointerEvents=1;fontSize=16;" vertex="1" parent="y0cFCC2wbaYEuUW8jUDX-54">
          <mxGeometry x="347" width="87" height="40" as="geometry">
            <mxRectangle width="87" height="40" as="alternateBounds" />
          </mxGeometry>
        </mxCell>
        <mxCell id="y0cFCC2wbaYEuUW8jUDX-60" value="1" style="shape=partialRectangle;html=1;whiteSpace=wrap;connectable=0;strokeColor=#6c8ebf;overflow=hidden;fillColor=#dae8fc;top=0;left=0;bottom=0;right=0;pointerEvents=1;fontSize=16;" vertex="1" parent="y0cFCC2wbaYEuUW8jUDX-54">
          <mxGeometry x="434" width="87" height="40" as="geometry">
            <mxRectangle width="87" height="40" as="alternateBounds" />
          </mxGeometry>
        </mxCell>
        <mxCell id="y0cFCC2wbaYEuUW8jUDX-61" value="&lt;font color=&quot;#ff3333&quot;&gt;low&lt;/font&gt;" style="text;html=1;align=center;verticalAlign=middle;resizable=0;points=[];autosize=1;strokeColor=none;fillColor=none;" vertex="1" parent="1">
          <mxGeometry x="260" y="580" width="40" height="30" as="geometry" />
        </mxCell>
        <mxCell id="y0cFCC2wbaYEuUW8jUDX-62" value="&lt;font color=&quot;#ff3333&quot;&gt;high&lt;/font&gt;" style="text;html=1;align=center;verticalAlign=middle;resizable=0;points=[];autosize=1;strokeColor=none;fillColor=none;" vertex="1" parent="1">
          <mxGeometry x="624" y="580" width="50" height="30" as="geometry" />
        </mxCell>
        <mxCell id="y0cFCC2wbaYEuUW8jUDX-63" value="" style="endArrow=classic;html=1;rounded=0;exitX=0.499;exitY=1;exitDx=0;exitDy=0;exitPerimeter=0;strokeColor=#FF3399;" edge="1" parent="1">
          <mxGeometry width="50" height="50" relative="1" as="geometry">
            <mxPoint x="413" y="540" as="sourcePoint" />
            <mxPoint x="413" y="600" as="targetPoint" />
          </mxGeometry>
        </mxCell>
        <mxCell id="y0cFCC2wbaYEuUW8jUDX-64" value="因为low &amp;lt; hgih，且出现了&lt;b&gt;a[low]&amp;lt;=pivot&lt;/b&gt;这种行为，因此&lt;b&gt;low++&lt;/b&gt;" style="text;html=1;align=center;verticalAlign=middle;resizable=0;points=[];autosize=1;strokeColor=none;fillColor=none;" vertex="1" parent="1">
          <mxGeometry x="457" y="554.5" width="360" height="30" as="geometry" />
        </mxCell>
        <mxCell id="y0cFCC2wbaYEuUW8jUDX-65" value="&lt;font color=&quot;#ff3333&quot;&gt;high&lt;/font&gt;" style="text;html=1;align=center;verticalAlign=middle;resizable=0;points=[];autosize=1;strokeColor=none;fillColor=none;" vertex="1" parent="1">
          <mxGeometry x="612" y="365" width="50" height="30" as="geometry" />
        </mxCell>
        <mxCell id="y0cFCC2wbaYEuUW8jUDX-70" value="" style="shape=table;startSize=0;container=1;collapsible=0;childLayout=tableLayout;fontSize=16;" vertex="1" parent="1">
          <mxGeometry x="153" y="702" width="521" height="40" as="geometry" />
        </mxCell>
        <mxCell id="y0cFCC2wbaYEuUW8jUDX-71" value="" style="shape=tableRow;horizontal=0;startSize=0;swimlaneHead=0;swimlaneBody=0;strokeColor=inherit;top=0;left=0;bottom=0;right=0;collapsible=0;dropTarget=0;fillColor=none;points=[[0,0.5],[1,0.5]];portConstraint=eastwest;fontSize=16;" vertex="1" parent="y0cFCC2wbaYEuUW8jUDX-70">
          <mxGeometry width="521" height="40" as="geometry" />
        </mxCell>
        <mxCell id="y0cFCC2wbaYEuUW8jUDX-72" value="1" style="shape=partialRectangle;html=1;whiteSpace=wrap;connectable=0;overflow=hidden;top=0;left=0;bottom=0;right=0;pointerEvents=1;fontSize=16;" vertex="1" parent="y0cFCC2wbaYEuUW8jUDX-71">
          <mxGeometry width="87" height="40" as="geometry">
            <mxRectangle width="87" height="40" as="alternateBounds" />
          </mxGeometry>
        </mxCell>
        <mxCell id="y0cFCC2wbaYEuUW8jUDX-73" value="3" style="shape=partialRectangle;html=1;whiteSpace=wrap;connectable=0;overflow=hidden;top=0;left=0;bottom=0;right=0;pointerEvents=1;fontSize=16;" vertex="1" parent="y0cFCC2wbaYEuUW8jUDX-71">
          <mxGeometry x="87" width="86" height="40" as="geometry">
            <mxRectangle width="86" height="40" as="alternateBounds" />
          </mxGeometry>
        </mxCell>
        <mxCell id="y0cFCC2wbaYEuUW8jUDX-74" value="6" style="shape=partialRectangle;html=1;whiteSpace=wrap;connectable=0;strokeColor=#82b366;overflow=hidden;fillColor=#d5e8d4;top=0;left=0;bottom=0;right=0;pointerEvents=1;fontSize=16;" vertex="1" parent="y0cFCC2wbaYEuUW8jUDX-71">
          <mxGeometry x="173" width="87" height="40" as="geometry">
            <mxRectangle width="87" height="40" as="alternateBounds" />
          </mxGeometry>
        </mxCell>
        <mxCell id="y0cFCC2wbaYEuUW8jUDX-75" value="10" style="shape=partialRectangle;html=1;whiteSpace=wrap;connectable=0;strokeColor=inherit;overflow=hidden;fillColor=none;top=0;left=0;bottom=0;right=0;pointerEvents=1;fontSize=16;" vertex="1" parent="y0cFCC2wbaYEuUW8jUDX-71">
          <mxGeometry x="260" width="87" height="40" as="geometry">
            <mxRectangle width="87" height="40" as="alternateBounds" />
          </mxGeometry>
        </mxCell>
        <mxCell id="y0cFCC2wbaYEuUW8jUDX-76" value="2" style="shape=partialRectangle;html=1;whiteSpace=wrap;connectable=0;strokeColor=inherit;overflow=hidden;fillColor=none;top=0;left=0;bottom=0;right=0;pointerEvents=1;fontSize=16;" vertex="1" parent="y0cFCC2wbaYEuUW8jUDX-71">
          <mxGeometry x="347" width="87" height="40" as="geometry">
            <mxRectangle width="87" height="40" as="alternateBounds" />
          </mxGeometry>
        </mxCell>
        <mxCell id="y0cFCC2wbaYEuUW8jUDX-77" value="1" style="shape=partialRectangle;html=1;whiteSpace=wrap;connectable=0;strokeColor=#6c8ebf;overflow=hidden;fillColor=#dae8fc;top=0;left=0;bottom=0;right=0;pointerEvents=1;fontSize=16;" vertex="1" parent="y0cFCC2wbaYEuUW8jUDX-71">
          <mxGeometry x="434" width="87" height="40" as="geometry">
            <mxRectangle width="87" height="40" as="alternateBounds" />
          </mxGeometry>
        </mxCell>
        <mxCell id="y0cFCC2wbaYEuUW8jUDX-78" value="" style="endArrow=classic;html=1;rounded=0;exitX=0.499;exitY=1;exitDx=0;exitDy=0;exitPerimeter=0;strokeColor=#FF3399;" edge="1" parent="1">
          <mxGeometry width="50" height="50" relative="1" as="geometry">
            <mxPoint x="412.5" y="641" as="sourcePoint" />
            <mxPoint x="412.5" y="701" as="targetPoint" />
          </mxGeometry>
        </mxCell>
        <mxCell id="y0cFCC2wbaYEuUW8jUDX-79" value="因为low &amp;lt; hgih，且出现了&lt;b&gt;a[low]&amp;lt;=pivot&lt;/b&gt;这种行为，因此&lt;b&gt;low++&lt;/b&gt;" style="text;html=1;align=center;verticalAlign=middle;resizable=0;points=[];autosize=1;strokeColor=none;fillColor=none;" vertex="1" parent="1">
          <mxGeometry x="469" y="660" width="360" height="30" as="geometry" />
        </mxCell>
        <mxCell id="y0cFCC2wbaYEuUW8jUDX-80" value="&lt;font color=&quot;#ff3333&quot;&gt;low&lt;/font&gt;" style="text;html=1;align=center;verticalAlign=middle;resizable=0;points=[];autosize=1;strokeColor=none;fillColor=none;" vertex="1" parent="1">
          <mxGeometry x="350" y="672" width="40" height="30" as="geometry" />
        </mxCell>
        <mxCell id="y0cFCC2wbaYEuUW8jUDX-81" value="&lt;font color=&quot;#ff3333&quot;&gt;high&lt;/font&gt;" style="text;html=1;align=center;verticalAlign=middle;resizable=0;points=[];autosize=1;strokeColor=none;fillColor=none;" vertex="1" parent="1">
          <mxGeometry x="621" y="680" width="50" height="30" as="geometry" />
        </mxCell>
        <mxCell id="y0cFCC2wbaYEuUW8jUDX-82" value="" style="shape=table;startSize=0;container=1;collapsible=0;childLayout=tableLayout;fontSize=16;" vertex="1" parent="1">
          <mxGeometry x="153" y="802" width="521" height="40" as="geometry" />
        </mxCell>
        <mxCell id="y0cFCC2wbaYEuUW8jUDX-83" value="" style="shape=tableRow;horizontal=0;startSize=0;swimlaneHead=0;swimlaneBody=0;strokeColor=inherit;top=0;left=0;bottom=0;right=0;collapsible=0;dropTarget=0;fillColor=none;points=[[0,0.5],[1,0.5]];portConstraint=eastwest;fontSize=16;" vertex="1" parent="y0cFCC2wbaYEuUW8jUDX-82">
          <mxGeometry width="521" height="40" as="geometry" />
        </mxCell>
        <mxCell id="y0cFCC2wbaYEuUW8jUDX-84" value="1" style="shape=partialRectangle;html=1;whiteSpace=wrap;connectable=0;overflow=hidden;top=0;left=0;bottom=0;right=0;pointerEvents=1;fontSize=16;" vertex="1" parent="y0cFCC2wbaYEuUW8jUDX-83">
          <mxGeometry width="87" height="40" as="geometry">
            <mxRectangle width="87" height="40" as="alternateBounds" />
          </mxGeometry>
        </mxCell>
        <mxCell id="y0cFCC2wbaYEuUW8jUDX-85" value="3" style="shape=partialRectangle;html=1;whiteSpace=wrap;connectable=0;overflow=hidden;top=0;left=0;bottom=0;right=0;pointerEvents=1;fontSize=16;" vertex="1" parent="y0cFCC2wbaYEuUW8jUDX-83">
          <mxGeometry x="87" width="86" height="40" as="geometry">
            <mxRectangle width="86" height="40" as="alternateBounds" />
          </mxGeometry>
        </mxCell>
        <mxCell id="y0cFCC2wbaYEuUW8jUDX-86" value="1" style="shape=partialRectangle;html=1;whiteSpace=wrap;connectable=0;strokeColor=#82b366;overflow=hidden;fillColor=#d5e8d4;top=0;left=0;bottom=0;right=0;pointerEvents=1;fontSize=16;" vertex="1" parent="y0cFCC2wbaYEuUW8jUDX-83">
          <mxGeometry x="173" width="87" height="40" as="geometry">
            <mxRectangle width="87" height="40" as="alternateBounds" />
          </mxGeometry>
        </mxCell>
        <mxCell id="y0cFCC2wbaYEuUW8jUDX-87" value="10" style="shape=partialRectangle;html=1;whiteSpace=wrap;connectable=0;strokeColor=inherit;overflow=hidden;fillColor=none;top=0;left=0;bottom=0;right=0;pointerEvents=1;fontSize=16;" vertex="1" parent="y0cFCC2wbaYEuUW8jUDX-83">
          <mxGeometry x="260" width="87" height="40" as="geometry">
            <mxRectangle width="87" height="40" as="alternateBounds" />
          </mxGeometry>
        </mxCell>
        <mxCell id="y0cFCC2wbaYEuUW8jUDX-88" value="2" style="shape=partialRectangle;html=1;whiteSpace=wrap;connectable=0;strokeColor=inherit;overflow=hidden;fillColor=none;top=0;left=0;bottom=0;right=0;pointerEvents=1;fontSize=16;" vertex="1" parent="y0cFCC2wbaYEuUW8jUDX-83">
          <mxGeometry x="347" width="87" height="40" as="geometry">
            <mxRectangle width="87" height="40" as="alternateBounds" />
          </mxGeometry>
        </mxCell>
        <mxCell id="y0cFCC2wbaYEuUW8jUDX-89" value="6" style="shape=partialRectangle;html=1;whiteSpace=wrap;connectable=0;strokeColor=#6c8ebf;overflow=hidden;fillColor=#dae8fc;top=0;left=0;bottom=0;right=0;pointerEvents=1;fontSize=16;" vertex="1" parent="y0cFCC2wbaYEuUW8jUDX-83">
          <mxGeometry x="434" width="87" height="40" as="geometry">
            <mxRectangle width="87" height="40" as="alternateBounds" />
          </mxGeometry>
        </mxCell>
        <mxCell id="y0cFCC2wbaYEuUW8jUDX-90" value="因为low &amp;lt; hgih，且没有出现了&lt;b&gt;a[low]&amp;lt;=pivot&lt;/b&gt;这种行为，因此需要进行&lt;b style=&quot;border-color: var(--border-color);&quot;&gt;高低位交换&lt;/b&gt;" style="text;html=1;align=center;verticalAlign=middle;resizable=0;points=[];autosize=1;strokeColor=none;fillColor=none;" vertex="1" parent="1">
          <mxGeometry x="469" y="760" width="460" height="30" as="geometry" />
        </mxCell>
        <mxCell id="y0cFCC2wbaYEuUW8jUDX-91" value="&lt;font color=&quot;#ff3333&quot;&gt;low&lt;/font&gt;" style="text;html=1;align=center;verticalAlign=middle;resizable=0;points=[];autosize=1;strokeColor=none;fillColor=none;" vertex="1" parent="1">
          <mxGeometry x="350" y="772" width="40" height="30" as="geometry" />
        </mxCell>
        <mxCell id="y0cFCC2wbaYEuUW8jUDX-92" value="&lt;font color=&quot;#ff3333&quot;&gt;high&lt;/font&gt;" style="text;html=1;align=center;verticalAlign=middle;resizable=0;points=[];autosize=1;strokeColor=none;fillColor=none;" vertex="1" parent="1">
          <mxGeometry x="621" y="780" width="50" height="30" as="geometry" />
        </mxCell>
        <mxCell id="y0cFCC2wbaYEuUW8jUDX-93" value="" style="endArrow=classic;html=1;rounded=0;exitX=0.499;exitY=1;exitDx=0;exitDy=0;exitPerimeter=0;strokeColor=#FF3399;" edge="1" parent="1">
          <mxGeometry width="50" height="50" relative="1" as="geometry">
            <mxPoint x="414" y="740" as="sourcePoint" />
            <mxPoint x="414" y="800" as="targetPoint" />
          </mxGeometry>
        </mxCell>
        <mxCell id="y0cFCC2wbaYEuUW8jUDX-102" value="然后再循环从高位 -&amp;gt; 低位这样找过来" style="text;html=1;align=center;verticalAlign=middle;resizable=0;points=[];autosize=1;strokeColor=none;fillColor=none;" vertex="1" parent="1">
          <mxGeometry x="153" y="880" width="220" height="30" as="geometry" />
        </mxCell>
      </root>
    </mxGraphModel>
  </diagram>
</mxfile>
